<svg xmlns="http://www.w3.org/2000/svg" viewBox="0 0 167.3 167.3"><path d="M167.2 111.5c0-0.2 0-0.5-0.1-0.7 0 0 0-0.1 0-0.1 0-0.2-0.1-0.4-0.2-0.6 0-0.1 0-0.1-0.1-0.2 0 0 0-0.1 0-0.1L155.2 86c3.6-1.4 6.1-5 6.1-9V30.7c0-5.6-4.6-10.2-10.2-10.2 -0.6 0-1.2 0.1-1.9 0.2 -2.2 0.4-4.1 1.5-5.6 3C134.3 12.9 108 7.2 82.9 7.2c-24.5 0-50.2 5.4-60.1 15.7 -1.3-1.2-3-2-4.8-2.3 -0.6-0.1-1.2-0.2-1.9-0.2 -5.6 0-10.2 4.6-10.2 10.2v46.2c0 4.1 2.5 7.6 6.1 9L0.4 109.8c0 0 0 0.1 0 0.1 0 0.1-0.1 0.1-0.1 0.2 -0.1 0.2-0.1 0.4-0.2 0.6 0 0 0 0.1 0 0.1 0 0.2-0.1 0.5-0.1 0.7C0 111.5 0 111.5 0 111.6v30.6c0 2.2 1.8 4 4 4h10.8v9.8c0 2.2 1.8 4 4 4h17.1c2.2 0 4-1.8 4-4v-9.8h89v9.8c0 2.2 1.8 4 4 4h17.1c2.2 0 4-1.8 4-4v-9.8h9.3c2.2 0 4-1.8 4-4v-30.6C167.3 111.5 167.2 111.5 167.2 111.5zM93.5 45.7c0-2.3 1.9-4.2 4.2-4.2h31.3c2.3 0 4.2 1.9 4.2 4.2v18.2c0 2.3-1.9 4.2-4.1 4.2h-31.3c-2.3 0-4.1-1.9-4.1-4.1V45.7zM34.2 45.7c0-2.3 1.9-4.2 4.2-4.2h31.3c2.3 0 4.2 1.9 4.2 4.2v18.2c0 2.3-1.9 4.2-4.1 4.2h-31.3c-2.3 0-4.2-1.9-4.2-4.1V45.7zM10.4 107.6L28.4 70.9c2.2 3.1 5.8 5.2 9.9 5.2h31.3c4.5 0 8.4-2.5 10.5-6.1h7c2.1 3.6 6 6.1 10.5 6.1h31.3c4.1 0 7.7-2 9.9-5.2l18 36.7H10.4z"/></svg>
