<svg xmlns="http://www.w3.org/2000/svg" viewBox="0 0 512 512"><path fill="#FFFFFF" d="M474.7 372.7c0 0 0 0 0 0 -18.4-10.6-24.7-34.2-14.1-52.6 7.3-12.7 9.3-27.6 5.5-41.7 -2.3-8.5-6.4-16.1-12.1-22.4 15.4-17.4 18.5-43.4 6.6-64.2 -5.1-8.9-6.5-19.2-3.8-29.2 2.7-9.9 9-18.2 17.9-23.4 3.9-2.3 5.3-7.3 3-11.3 -2.3-3.9-7.3-5.3-11.3-3 0 0 0 0 0 0 -18.4 10.6-41.9 4.3-52.6-14.1 -7.4-12.7-19.2-21.8-33.4-25.6 -8.4-2.3-17.1-2.5-25.5-0.7 -7.3-22-28.3-37.8-52.3-37.8 -10.3 0-19.9-4-27.2-11.3 -7.3-7.3-11.3-17-11.3-27.2 0-4.6-3.7-8.2-8.3-8.2 -4.6 0-8.2 3.7-8.3 8.3 0 10.3-4 19.9-11.3 27.2 -7.3 7.3-16.9 11.3-27.2 11.3h0c-14.7 0-28.5 5.7-38.9 16.1 -6.2 6.2-10.7 13.6-13.4 21.7 -22.8-4.7-46.9 5.7-58.9 26.4 -5.1 8.9-13.4 15.2-23.3 17.9 -9.9 2.7-20.3 1.3-29.2-3.8 0 0 0 0 0 0 -3.9-2.3-9-0.9-11.3 3 -2.3 3.9-0.9 9 3 11.3 0 0 0 0 0 0 8.9 5.1 15.3 13.4 17.9 23.4 2.7 9.9 1.3 20.3-3.8 29.2 -7.4 12.7-9.3 27.5-5.5 41.7 2.3 8.5 6.4 16.1 12.1 22.4 -15.4 17.4-18.5 43.4-6.6 64.2 5.1 8.9 6.5 19.3 3.8 29.2 -2.7 9.9-9.1 18.2-17.9 23.4 -3.9 2.3-5.3 7.3-3 11.3 2.3 3.9 7.3 5.3 11.3 3l0 0c8.9-5.1 19.3-6.5 29.2-3.8 9.9 2.7 18.2 9 23.4 17.9 7.3 12.7 19.2 21.8 33.4 25.6 4.7 1.3 9.5 1.9 14.3 1.9 3.7 0 7.5-0.4 11.2-1.2 7.3 22 28.4 37.8 52.3 37.8 10.3 0 19.9 4 27.2 11.3 7.3 7.3 11.3 17 11.3 27.2 0 4.6 3.7 8.3 8.3 8.3s8.3-3.7 8.3-8.3c0-21.2 17.3-38.5 38.5-38.5 14.7 0 28.5-5.7 38.9-16.1 6.2-6.2 10.7-13.6 13.4-21.7 22.8 4.7 46.9-5.7 58.9-26.4 5.2-8.9 13.4-15.2 23.3-17.9 9.9-2.7 20.3-1.3 29.2 3.8 3.9 2.3 9 0.9 11.3-3C480 380.1 478.6 375 474.7 372.7zM446.3 200c8.5 14.7 6.2 33.3-5 45.4 -0.3-0.2-0.5-0.3-0.8-0.5l-52.6-30.4c-8.1-4.7-16.7-8.1-25.6-10.4l78.5-45.3C437.1 172.9 439 187.5 446.3 200zM357.7 162.5l0-60.7c0-0.3 0-0.6 0-0.9 6-1.4 12.3-1.3 18.4 0.4 9.9 2.7 18.2 9 23.4 17.9 7.5 13 19.5 21.7 32.9 25.4l-78.5 45.3C356.5 181 357.8 171.8 357.7 162.5zM264.3 47.5c10.3 10.1 23.9 15.7 38.4 15.7 17 0 31.9 11.3 36.8 27.1 -0.3 0.1-0.5 0.3-0.8 0.4l-52.6 30.4c-8.1 4.7-15.4 10.4-21.8 17V47.5zM263.2 166.6c7.4-12.9 18.2-23.7 31.2-31.2l46.9-27.1 0 54.2c0 15-3.9 29.7-11.4 42.6 -0.5 0.8-0.8 1.7-1 2.6 -14.8-22.2-39.4-37.3-67.5-39C262.1 168.1 262.7 167.4 263.2 166.6zM182 74.5c7.3-7.3 16.9-11.3 27.2-11.3 0 0 0 0 0 0 14.5 0 28.2-5.6 38.5-15.7v90.6c-6.5-6.6-13.8-12.3-21.8-17l-52.6-30.4c-0.3-0.2-0.6-0.3-0.8-0.5C174.3 84.4 177.5 79 182 74.5zM170.8 108.3l46.9 27.1c13 7.5 23.8 18.3 31.2 31.2 0.5 0.8 1.1 1.5 1.8 2.1 -28.2 1.7-52.8 16.8-67.6 39 -0.2-0.9-0.5-1.8-1-2.7 -7.5-12.9-11.4-27.6-11.4-42.6L170.8 108.3zM112.4 119.2c8.5-14.7 25.7-22 41.9-18.4 0 0.3 0 0.6 0 0.9l0 60.7c0 9.3 1.3 18.5 3.7 27.4l-78.4-45.3C93.5 140.7 105.2 131.7 112.4 119.2zM65.7 200.1c7.3-12.6 9.2-27.2 5.6-41.2l78.5 45.3c-8.9 2.3-17.6 5.8-25.6 10.4l-52.6 30.4c-0.3 0.2-0.5 0.3-0.8 0.5 -4.2-4.5-7.2-10-8.9-16.2C59.2 219.4 60.6 209 65.7 200.1zM71.3 353.1c3.6-14 1.6-28.6-5.6-41.1 -8.5-14.7-6.2-33.3 5-45.4 0.3 0.2 0.5 0.3 0.8 0.5l52.6 30.4c8.1 4.7 16.7 8.1 25.6 10.4L71.3 353.1zM154.3 349.5l0 60.7c0 0.3 0 0.6 0 0.9 -6 1.4-12.3 1.3-18.4-0.4 -9.9-2.7-18.2-9-23.4-17.9 -7.3-12.6-18.9-21.6-32.9-25.5l78.4-45.3C155.5 331 154.3 340.2 154.3 349.5zM132.4 283.1L85.5 256l46.9-27.1c13-7.5 27.7-11.4 42.5-11.4 0 0 0 0 0.1 0 1 0 1.9-0.2 2.8-0.5 -5.9 11.8-9.2 25-9.2 39 0 14 3.3 27.2 9.2 39 -0.9-0.3-1.8-0.5-2.7-0.5 0 0 0 0-0.1 0C160.1 294.5 145.4 290.5 132.4 283.1zM247.8 464.5c-10.3-10.1-23.9-15.7-38.4-15.7 -17 0-31.9-11.3-36.8-27.1 0.3-0.1 0.5-0.3 0.8-0.4l52.6-30.4c8.1-4.7 15.4-10.4 21.8-17L247.8 464.5zM248.9 345.4c-7.4 12.9-18.2 23.7-31.2 31.2l-46.9 27.1 0-54.2c0-15 3.9-29.7 11.4-42.6 0.5-0.8 0.8-1.7 1-2.6 14.7 22.2 39.4 37.3 67.5 39C250 343.9 249.3 344.6 248.9 345.4zM185.1 256c0-39.1 31.8-70.9 70.9-70.9 39.1 0 70.9 31.8 70.9 70.9 0 39.1-31.8 70.9-70.9 70.9C216.9 326.9 185.1 295.1 185.1 256zM330 437.5c-7.3 7.3-16.9 11.3-27.2 11.3 0 0 0 0 0 0 -15 0-28.6 6-38.5 15.8l0-90.6c6.5 6.6 13.8 12.3 21.8 17l52.6 30.4c0.3 0.2 0.5 0.3 0.8 0.4C337.7 427.6 334.5 433 330 437.5zM294.3 376.6c-13-7.5-23.8-18.3-31.2-31.2 -0.5-0.8-1.1-1.5-1.8-2.1 28.2-1.7 52.8-16.8 67.5-39 0.2 0.9 0.5 1.8 1 2.7 7.5 12.9 11.4 27.6 11.4 42.6l0 54.2L294.3 376.6zM337.1 294.5c0 0 0 0-0.1 0 -1 0-1.9 0.2-2.8 0.5 5.9-11.8 9.2-25 9.2-39 0-14-3.3-27.3-9.2-39 0.9 0.3 1.8 0.5 2.7 0.5 0 0 0 0 0.1 0 14.9 0 29.6 4 42.5 11.4l46.9 27.1 -46.9 27.1C366.6 290.6 351.9 294.5 337.1 294.5zM399.6 392.8c-8.5 14.7-25.7 22-41.9 18.4 0-0.3 0-0.6 0-0.9l0-60.8c0-9.3-1.3-18.5-3.7-27.4l78.4 45.3C418.5 371.3 406.9 380.3 399.6 392.8zM446.3 311.9c-7.5 13-9.1 27.8-5.6 41.2l-78.5-45.3c8.9-2.3 17.6-5.8 25.6-10.4l52.6-30.4c0.3-0.2 0.5-0.3 0.8-0.5 4.2 4.5 7.2 10 8.9 16.1C452.8 292.6 451.4 303 446.3 311.9z"/><path fill="#FFFFFF" d="M256 205.5c-27.9 0-50.5 22.7-50.5 50.5 0 27.9 22.7 50.5 50.5 50.5s50.5-22.7 50.5-50.5C306.5 228.1 283.9 205.5 256 205.5zM256 290c-18.8 0-34-15.3-34-34s15.3-34 34-34c18.8 0 34 15.3 34 34C290 274.8 274.8 290 256 290z"/><circle fill="#FFFFFF" cx="384.2" cy="375.9" r="8.3"/><circle fill="#FFFFFF" cx="312.1" cy="356.7" r="8.3"/><circle fill="#FFFFFF" cx="297.1" cy="421.7" r="8.3"/><circle fill="#FFFFFF" cx="214.9" cy="426.7" r="8.3"/><circle fill="#FFFFFF" cx="199.9" cy="356.7" r="8.3"/><circle fill="#FFFFFF" cx="134.5" cy="376" r="8.3"/><circle fill="#FFFFFF" cx="88.3" cy="307.8" r="8.3"/><circle fill="#FFFFFF" cx="140.8" cy="257.2" r="8.3"/><circle fill="#FFFFFF" cx="91.6" cy="210" r="8.3"/><circle fill="#FFFFFF" cx="127.8" cy="136.1" r="8.3"/><circle fill="#FFFFFF" cx="199.9" cy="155.4" r="8.3"/><circle fill="#FFFFFF" cx="214.9" cy="90.3" r="8.3"/><circle fill="#FFFFFF" cx="297.1" cy="85.3" r="8.3"/><circle fill="#FFFFFF" cx="312.1" cy="155.4" r="8.3"/><circle fill="#FFFFFF" cx="377.5" cy="136.1" r="8.3"/><circle fill="#FFFFFF" cx="423.8" cy="204.2" r="8.3"/><circle fill="#FFFFFF" cx="371.2" cy="254.8" r="8.3"/><circle fill="#FFFFFF" cx="420.5" cy="302" r="8.3"/></svg>
